Coordinates
version=1
nRows=4
nColumns=107
inDegrees=yes

Units are S.I. units (second, meters, Newtons, ...)
If the header above contains a line with 'inDegrees', this indicates whether rotational values are in degrees (yes) or radians (no).

endheader
time	sternoclavicular_r2	sternoclavicular_r3	unrotscap_r3	unrotscap_r2	acromioclavicular_r2	acromioclavicular_r3	acromioclavicular_r1	unrothum_r1	unrothum_r3	unrothum_r2	elv_angle	shoulder_elv	shoulder1_r2	shoulder_rot	elbow_flexion	pro_sup	deviation	flexion	proximal_distal_r1	proximal_distal_r3	cmc_flexion	cmc_abduction	mp_flexion	ip_flexion	mcp2_flexion	mcp2_abduction	pm2_flexion	md2_flexion	mcp3_flexion	mcp3_abduction	pm3_flexion	md3_flexion	mcp4_flexion	mcp4_abduction	pm4_flexion	md4_flexion	mcp5_flexion	mcp5_abduction	pm5_flexion	md5_flexion	bicpt_tx	bicpt_ty	bicpt_tz	bicpt2_tx	bicpt2_ty	bicpt2_tz	ptpt_tx	ptpt_ty	ptpt_tz	FCUpt_tx	FCUpt_ty	FCUpt_tz	EDCpt_tx	EDCpt_ty	EDCpt_tz	APLpt_tx	APLpt_ty	APLpt_tz	FPLpt_tx	FPLpt_ty	FPLpt_tz	FPLpt2_tx	FPLpt2_ty	FPLpt2_tz	PEC1pt2_tx	PEC1pt2_ty	PEC1pt2_tz	PEC1pt3_tx	PEC1pt3_ty	PEC1pt3_tz	PEC2pt2_tx	PEC2pt2_ty	PEC2pt2_tz	PEC2pt3_tx	PEC2pt3_ty	PEC2pt3_tz	PEC3pt2_tx	PEC3pt2_ty	PEC3pt2_tz	PEC3pt3_tx	PEC3pt3_ty	PEC3pt3_tz	DELT2pt2a_tx	DELT2pt2a_ty	DELT2pt2a_tz	DELT2pt2_tx	DELT2pt2_ty	DELT2pt2_tz	LAT1pt2_tx	LAT1pt2_ty	LAT1pt2_tz	LAT1pt3_tx	LAT1pt3_ty	LAT1pt3_tz	LAT2pt2_tx	LAT2pt2_ty	LAT2pt2_tz	LAT2pt3_tx	LAT2pt3_ty	LAT2pt3_tz	LAT3pt2_tx	LAT3pt2_ty	LAT3pt2_tz	LAT3pt3_tx	LAT3pt3_ty	LAT3pt3_tz
      1.20000000	     -0.30973411	      0.13118875	     -0.13118875	      0.30973411	     -0.06271486	      0.50683940	      0.22782082	     -0.22782082	     -0.50683940	      0.06271486	    102.38491611	     73.33230254	     -1.78695389	    -40.27345316	     31.78346935	     87.91818236	      0.38940610	     -0.38323595	      0.40436289	     -0.19161798	     18.44856358	      0.53924603	    -10.93581223	    -11.93618581	      9.12273924	      9.55714875	     31.22888272	      1.77092116	     14.61273169	      1.22160785	     25.56338646	     18.07285621	     16.40189815	     -7.87691044	     26.56280591	     23.60886909	     11.53797417	    -14.35546266	     24.50056410	      5.35670613	      0.00095130	     -0.03124287	     -0.00488677	      0.01403742	     -0.01883414	     -0.00074498	      0.00105384	     -0.06910053	     -0.00713228	      0.01295892	     -0.18217226	      0.00013801	     -0.01055016	      0.00368384	     -0.00081981	      0.00026911	      0.00010764	      0.00053822	      0.00034446	      0.00103338	      0.00058128	      0.00001565	     -0.00027214	     -0.00032657	      0.00240367	      0.00843322	      0.00586659	     -0.00786286	      0.01898493	     -0.01800717	      0.00240367	      0.00843322	      0.00586659	      0.00052962	      0.01759977	     -0.00924803	      0.00383916	      0.00468961	      0.01569562	      0.00000000	      0.00718826	      0.00000000	     -0.00688509	     -0.03181810	     -0.00592352	      0.02272641	     -0.00112083	     -0.01307702	     -0.00085554	      0.01434055	     -0.00586659	      0.00236293	      0.02069602	     -0.01711089	     -0.00574437	      0.01242576	     -0.00525549	     -0.01197762	      0.02623669	     -0.02937369	     -0.02248859	      0.01389241	     -0.00704806	     -0.01491091	      0.03031071	     -0.03670692
      1.23333333	     -0.31022516	      0.13139673	     -0.13139673	      0.31022516	     -0.06281428	      0.50764294	      0.22818201	     -0.22818201	     -0.50764294	      0.06281428	    102.06953068	     73.44856315	     -1.78144938	    -39.33162466	     31.93673073	     87.59712304	      0.39568077	     -0.35464877	      0.40884701	     -0.17732438	     18.29796809	     -0.35250314	    -10.47534110	    -15.52191944	      8.96197357	      9.04828096	     32.03217267	     -0.99376353	     14.62234420	      0.72380911	     24.54956018	     19.71458985	     17.09005635	     -8.14206239	     24.00302797	     27.26086110	      9.71447351	    -14.38553895	     28.71250827	      5.16132516	      0.00095637	     -0.03126044	     -0.00488960	      0.01407207	     -0.01887577	     -0.00080085	      0.00107756	     -0.06908519	     -0.00710642	      0.01292184	     -0.18218331	      0.00012869	     -0.01051163	      0.00366603	     -0.00080915	      0.00025753	      0.00010301	      0.00051505	      0.00032963	      0.00098890	      0.00055626	      0.00001603	     -0.00027186	     -0.00032623	      0.00240748	      0.00844659	      0.00587589	     -0.00787532	      0.01901503	     -0.01803572	      0.00240748	      0.00844659	      0.00587589	      0.00053046	      0.01762767	     -0.00926269	      0.00384368	      0.00469704	      0.01570716	      0.00000000	      0.00721121	      0.00000000	     -0.00689601	     -0.03186854	     -0.00594259	      0.02243243	     -0.00108654	     -0.01252263	     -0.00085690	      0.01436329	     -0.00587589	      0.00236668	      0.02072883	     -0.01713801	     -0.00575348	      0.01244546	     -0.00526382	     -0.01199661	      0.02627829	     -0.02942025	     -0.02252425	      0.01391443	     -0.00705923	     -0.01493455	      0.03035877	     -0.03676512
      1.26666667	     -0.31021189	      0.13139111	     -0.13139111	      0.31021189	     -0.06281160	      0.50762123	      0.22817225	     -0.22817225	     -0.50762123	      0.06281160	    102.05771666	     73.44542152	     -1.78124318	    -39.34050819	     31.92640017	     87.59649325	      0.39566302	     -0.35461073	      0.40883378	     -0.17730537	     18.29530147	     -0.35363182	    -10.47631476	    -15.52171860	      8.96443430	      9.04740556	     32.03312820	     -0.99289523	     14.62668200	      0.72387893	     24.55085012	     19.71478441	     17.09145146	     -8.14170294	     24.00446155	     27.26082683	      9.71768885	    -14.38429876	     28.71329133	      5.16162487	      0.00095603	     -0.03125925	     -0.00488941	      0.01407196	     -0.01887296	     -0.00080086	      0.00107761	     -0.06908516	     -0.00710637	      0.01292179	     -0.18218331	      0.00012873	     -0.01051155	      0.00366602	     -0.00080917	      0.00025751	      0.00010300	      0.00051502	      0.00032961	      0.00098883	      0.00055622	      0.00001602	     -0.00027143	     -0.00032571	      0.00240738	      0.00844623	      0.00587564	     -0.00787499	      0.01901422	     -0.01803495	      0.00240738	      0.00844623	      0.00587564	      0.00053044	      0.01762692	     -0.00926229	      0.00384356	      0.00469684	      0.01570685	      0.00000000	      0.00721059	      0.00000000	     -0.00689571	     -0.03186718	     -0.00594208	      0.02243518	     -0.00108687	     -0.01252787	     -0.00085686	      0.01436267	     -0.00587564	      0.00236658	      0.02072795	     -0.01713728	     -0.00575323	      0.01244493	     -0.00526359	     -0.01199610	      0.02627716	     -0.02941900	     -0.02252328	      0.01391384	     -0.00705893	     -0.01493391	      0.03035747	     -0.03676354
      1.30000000	     -0.31005407	      0.13132427	     -0.13132427	      0.31005407	     -0.06277964	      0.50736298	      0.22805617	     -0.22805617	     -0.50736298	      0.06277964	    102.33573341	     73.40805695	     -1.78609549	    -40.07272150	     31.67282049	     87.99808786	      0.38913455	     -0.39490777	      0.40416745	     -0.19745389	     17.45510457	     -0.44741097	    -11.33509023	    -10.97937072	     10.24803322	      8.89477916	     32.35500207	      1.75091080	     15.97785034	      0.77255036	     26.07270296	     18.35114183	     17.90893234	     -8.33208349	     27.01258763	     23.76826512	     12.37205040	    -14.34114675	     27.06503554	      5.35593156	      0.00094764	     -0.03123019	     -0.00488473	      0.01402880	     -0.01880408	     -0.00073107	      0.00104793	     -0.06910434	     -0.00713872	      0.01296815	     -0.18216951	      0.00014033	     -0.01055975	      0.00368828	     -0.00082246	      0.00027345	      0.00010938	      0.00054690	      0.00035002	      0.00105005	      0.00059066	      0.00001807	     -0.00026711	     -0.00032053	      0.00240616	      0.00844193	      0.00587265	     -0.00787098	      0.01900455	     -0.01802577	      0.00240616	      0.00844193	      0.00587265	      0.00053017	      0.01761795	     -0.00925758	      0.00384210	      0.00469445	      0.01570314	      0.00000000	      0.00720321	      0.00000000	     -0.00689221	     -0.03185097	     -0.00593594	      0.02266471	     -0.00111351	     -0.01295825	     -0.00085643	      0.01435537	     -0.00587265	      0.00236537	      0.02071740	     -0.01712856	     -0.00575030	      0.01243860	     -0.00526092	     -0.01198999	      0.02626379	     -0.02940403	     -0.02251182	      0.01390676	     -0.00705534	     -0.01492632	      0.03034202	     -0.03674484
